<?xml version="1.0" encoding="utf-8"?>
<!-- Generator: Adobe Illustrator 23.0.1, SVG Export Plug-In . SVG Version: 6.00 Build 0)  -->
<svg version="1.1" id="Layer_2" xmlns="http://www.w3.org/2000/svg" xmlns:xlink="http://www.w3.org/1999/xlink" x="0px" y="0px"
	 viewBox="0 0 1468.4 1280" style="enable-background:new 0 0 1468.4 1280;" xml:space="preserve">
<style type="text/css">
	.st0{fill-rule:evenodd;clip-rule:evenodd;fill:#ECB22E;}
	.st1{fill-rule:evenodd;clip-rule:evenodd;fill:#2EB67D;}
	.st2{fill-rule:evenodd;clip-rule:evenodd;fill:#36C5F0;}
	.st3{fill-rule:evenodd;clip-rule:evenodd;fill:#E01E5A;}
</style>
<rect x="659" y="352.9" class="st0" width="154.1" height="377"/>
<circle class="st1" cx="523.7" cy="675.5" r="63.3"/>
<path class="st2" d="M918.2,1182.7l187.4,17.7l17.7-187.1C1133,910,1057,818.3,953.6,808.6c-103.4-9.9-195.2,66-205.1,169.3
	C738.9,1081.3,814.9,1173,918.2,1182.7z"/>
<path class="st3" d="M825.3,715.8H644.8c-26,0-47,21-47,47v2.3c0,26,21,47,47,47h35.1c0,0.4,0,0.9,0,1.3c0,32,26,58,58,58
	s58-26,58-58c0-0.4,0-0.9,0-1.3h29.5c26,0,47-21,47-47v-2.3C872.3,736.8,851.2,715.8,825.3,715.8z"/>
<circle class="st1" cx="951.8" cy="676.5" r="63.3"/>
<path class="st2" d="M722.3,977.9c-9.9-103.4-101.7-179.2-205.1-169.3c-103.4,9.7-179.4,101.4-169.7,204.8l17.7,187.1l187.4-17.7
	C656,1173,732,1081.3,722.3,977.9z"/>
<path class="st0" d="M736.1,1093.1c0,0,28.2,90.1,128.6,129.3c0,0-105.9,90.8-257.3,3.4C607.4,1225.9,695.5,1196.3,736.1,1093.1z"/>
<path class="st3" d="M266.4,545.1c0.6,0,1.2-0.1,1.7-0.1c34.8-83.8,101.6-174.4,229.7-217.9c12-128.1-79.2-244-207.8-261.3
	l-239-32.3L18.9,272.1C1.2,404,93.8,525.3,225.6,543C239.4,544.9,253,545.5,266.4,545.1z"/>
<path class="st3" d="M1207,545.1c-0.6,0-1.2-0.1-1.7-0.1c-34.8-83.8-101.6-174.4-229.7-217.9c-12-128.1,79.2-244,207.8-261.3
	l239-32.3l32.2,238.6c17.7,131.9-74.9,253.2-206.8,270.9C1234.1,544.9,1220.5,545.5,1207,545.1z"/>
</svg>
